<mxfile host="app.diagrams.net" modified="2024-05-20T13:30:26.134Z" agent="Mozilla/5.0 (Windows NT 10.0; Win64; x64) AppleWebKit/537.36 (KHTML, like Gecko) Chrome/122.0.0.0 Safari/537.36 Edg/122.0.0.0" etag="EU3ACVaa7qTe5uEllsCn" version="24.4.4" type="github">
  <diagram id="_y_MiWxf_ru2kXOl8PKq" name="第 1 页">
    <mxGraphModel dx="2081" dy="892" grid="1" gridSize="10" guides="1" tooltips="1" connect="1" arrows="1" fold="1" page="1" pageScale="1" pageWidth="827" pageHeight="1169" math="0" shadow="0">
      <root>
        <mxCell id="0" />
        <mxCell id="1" parent="0" />
        <mxCell id="ek3AfG3ewywKdCFBDNp1-62" value="" style="rounded=0;whiteSpace=wrap;html=1;fontSize=24;fillColor=none;dashed=1;fontFamily=宋体;" parent="1" vertex="1">
          <mxGeometry x="480" y="506" width="510" height="124" as="geometry" />
        </mxCell>
        <mxCell id="ek3AfG3ewywKdCFBDNp1-34" value="" style="rounded=0;whiteSpace=wrap;html=1;fontSize=24;fillColor=none;dashed=1;fontFamily=宋体;" parent="1" vertex="1">
          <mxGeometry x="-180" y="350" width="350" height="280" as="geometry" />
        </mxCell>
        <mxCell id="ek3AfG3ewywKdCFBDNp1-17" value="" style="edgeStyle=orthogonalEdgeStyle;rounded=0;orthogonalLoop=1;jettySize=auto;html=1;fontSize=24;entryX=0.5;entryY=0;entryDx=0;entryDy=0;fontFamily=宋体;" parent="1" source="ek3AfG3ewywKdCFBDNp1-6" target="ek3AfG3ewywKdCFBDNp1-7" edge="1">
          <mxGeometry relative="1" as="geometry">
            <mxPoint x="380" y="200" as="targetPoint" />
          </mxGeometry>
        </mxCell>
        <mxCell id="ek3AfG3ewywKdCFBDNp1-6" value="&lt;font&gt;开始&lt;/font&gt;" style="strokeWidth=2;html=1;shape=mxgraph.flowchart.start_1;whiteSpace=wrap;fontSize=24;fillColor=none;fontFamily=宋体;" parent="1" vertex="1">
          <mxGeometry x="330" y="140" width="90" height="50" as="geometry" />
        </mxCell>
        <mxCell id="ek3AfG3ewywKdCFBDNp1-19" value="" style="edgeStyle=orthogonalEdgeStyle;rounded=0;orthogonalLoop=1;jettySize=auto;html=1;fontSize=24;entryX=0.5;entryY=0;entryDx=0;entryDy=0;fontFamily=宋体;" parent="1" source="ek3AfG3ewywKdCFBDNp1-7" target="ek3AfG3ewywKdCFBDNp1-8" edge="1">
          <mxGeometry relative="1" as="geometry" />
        </mxCell>
        <mxCell id="ek3AfG3ewywKdCFBDNp1-7" value="&lt;font&gt;初始化路径规划系统参数与蚁群&lt;/font&gt;" style="rounded=0;whiteSpace=wrap;html=1;fontSize=24;fillColor=none;fontFamily=宋体;" parent="1" vertex="1">
          <mxGeometry x="194.99" y="210" width="360" height="40" as="geometry" />
        </mxCell>
        <mxCell id="ek3AfG3ewywKdCFBDNp1-20" value="" style="edgeStyle=orthogonalEdgeStyle;rounded=0;orthogonalLoop=1;jettySize=auto;html=1;fontSize=24;fontFamily=宋体;entryX=0.5;entryY=0;entryDx=0;entryDy=0;" parent="1" source="ek3AfG3ewywKdCFBDNp1-8" target="ek3AfG3ewywKdCFBDNp1-12" edge="1">
          <mxGeometry relative="1" as="geometry">
            <mxPoint x="375.0000000000002" y="330" as="targetPoint" />
          </mxGeometry>
        </mxCell>
        <mxCell id="ek3AfG3ewywKdCFBDNp1-8" value="枚举蚁群进行路径选择" style="rounded=0;whiteSpace=wrap;html=1;fontSize=24;fillColor=none;fontFamily=宋体;" parent="1" vertex="1">
          <mxGeometry x="240" y="270" width="270" height="40" as="geometry" />
        </mxCell>
        <mxCell id="ek3AfG3ewywKdCFBDNp1-23" value="" style="edgeStyle=orthogonalEdgeStyle;rounded=0;orthogonalLoop=1;jettySize=auto;html=1;fontSize=24;entryX=1;entryY=0.5;entryDx=0;entryDy=0;fontFamily=宋体;" parent="1" source="ek3AfG3ewywKdCFBDNp1-12" target="ek3AfG3ewywKdCFBDNp1-8" edge="1">
          <mxGeometry relative="1" as="geometry">
            <mxPoint x="700" y="400" as="targetPoint" />
            <Array as="points">
              <mxPoint x="560" y="400" />
              <mxPoint x="560" y="290" />
            </Array>
          </mxGeometry>
        </mxCell>
        <mxCell id="ek3AfG3ewywKdCFBDNp1-24" value="否" style="edgeLabel;html=1;align=center;verticalAlign=middle;resizable=0;points=[];fontSize=24;fontFamily=宋体;" parent="ek3AfG3ewywKdCFBDNp1-23" vertex="1" connectable="0">
          <mxGeometry x="-0.3373" relative="1" as="geometry">
            <mxPoint as="offset" />
          </mxGeometry>
        </mxCell>
        <mxCell id="ek3AfG3ewywKdCFBDNp1-26" value="" style="edgeStyle=orthogonalEdgeStyle;rounded=0;orthogonalLoop=1;jettySize=auto;html=1;fontSize=24;fontFamily=宋体;" parent="1" source="ek3AfG3ewywKdCFBDNp1-12" target="ek3AfG3ewywKdCFBDNp1-25" edge="1">
          <mxGeometry relative="1" as="geometry" />
        </mxCell>
        <mxCell id="ek3AfG3ewywKdCFBDNp1-28" value="" style="edgeStyle=orthogonalEdgeStyle;rounded=0;orthogonalLoop=1;jettySize=auto;html=1;fontSize=24;fontFamily=宋体;" parent="1" source="ek3AfG3ewywKdCFBDNp1-12" target="ek3AfG3ewywKdCFBDNp1-25" edge="1">
          <mxGeometry relative="1" as="geometry">
            <Array as="points">
              <mxPoint x="180" y="400" />
              <mxPoint x="180" y="400" />
            </Array>
          </mxGeometry>
        </mxCell>
        <mxCell id="ek3AfG3ewywKdCFBDNp1-29" value="是" style="edgeLabel;html=1;align=center;verticalAlign=middle;resizable=0;points=[];fontSize=24;fontFamily=宋体;" parent="ek3AfG3ewywKdCFBDNp1-28" vertex="1" connectable="0">
          <mxGeometry x="-0.2594" y="-1" relative="1" as="geometry">
            <mxPoint x="1" y="1" as="offset" />
          </mxGeometry>
        </mxCell>
        <mxCell id="ek3AfG3ewywKdCFBDNp1-12" value="&lt;font&gt;是否所有蚂蚁&lt;br&gt;完成路径规划？&lt;/font&gt;" style="rhombus;whiteSpace=wrap;html=1;fontSize=24;fillColor=none;fontFamily=宋体;" parent="1" vertex="1">
          <mxGeometry x="197.5" y="355" width="355" height="90" as="geometry" />
        </mxCell>
        <mxCell id="ek3AfG3ewywKdCFBDNp1-31" value="" style="edgeStyle=orthogonalEdgeStyle;rounded=0;orthogonalLoop=1;jettySize=auto;html=1;fontSize=24;fontFamily=宋体;" parent="1" source="ek3AfG3ewywKdCFBDNp1-25" target="ek3AfG3ewywKdCFBDNp1-30" edge="1">
          <mxGeometry relative="1" as="geometry" />
        </mxCell>
        <mxCell id="ek3AfG3ewywKdCFBDNp1-25" value="&lt;font&gt;计算所有蚂蚁的路径规划适应度值，选出最优蚂蚁个体&lt;/font&gt;" style="whiteSpace=wrap;html=1;fontSize=24;fillColor=none;fontFamily=宋体;" parent="1" vertex="1">
          <mxGeometry x="-160" y="370" width="310" height="60" as="geometry" />
        </mxCell>
        <mxCell id="ek3AfG3ewywKdCFBDNp1-33" value="" style="edgeStyle=orthogonalEdgeStyle;rounded=0;orthogonalLoop=1;jettySize=auto;html=1;fontSize=24;fontFamily=宋体;" parent="1" source="ek3AfG3ewywKdCFBDNp1-30" target="ek3AfG3ewywKdCFBDNp1-32" edge="1">
          <mxGeometry relative="1" as="geometry" />
        </mxCell>
        <mxCell id="ek3AfG3ewywKdCFBDNp1-30" value="&lt;font&gt;克隆多个最优蚂蚁个体，并对克隆体进行突变&lt;/font&gt;" style="whiteSpace=wrap;html=1;fontSize=24;fillColor=none;fontFamily=宋体;" parent="1" vertex="1">
          <mxGeometry x="-160" y="455" width="310" height="60" as="geometry" />
        </mxCell>
        <mxCell id="ek3AfG3ewywKdCFBDNp1-37" value="" style="edgeStyle=orthogonalEdgeStyle;rounded=0;orthogonalLoop=1;jettySize=auto;html=1;fontSize=24;fontFamily=宋体;" parent="1" source="ek3AfG3ewywKdCFBDNp1-32" target="ek3AfG3ewywKdCFBDNp1-36" edge="1">
          <mxGeometry relative="1" as="geometry" />
        </mxCell>
        <mxCell id="ek3AfG3ewywKdCFBDNp1-32" value="&lt;font&gt;用克隆体中最佳个体替代最佳蚂蚁个体&lt;/font&gt;" style="whiteSpace=wrap;html=1;fontSize=24;fillColor=none;fontFamily=宋体;" parent="1" vertex="1">
          <mxGeometry x="-160" y="540" width="310" height="60" as="geometry" />
        </mxCell>
        <mxCell id="ek3AfG3ewywKdCFBDNp1-35" value="&lt;font&gt;克隆算子&lt;/font&gt;" style="rounded=0;whiteSpace=wrap;html=1;dashed=1;fontSize=24;strokeColor=none;fontFamily=宋体;" parent="1" vertex="1">
          <mxGeometry x="-60" y="620" width="120" height="30" as="geometry" />
        </mxCell>
        <mxCell id="ek3AfG3ewywKdCFBDNp1-40" value="" style="edgeStyle=orthogonalEdgeStyle;rounded=0;orthogonalLoop=1;jettySize=auto;html=1;fontSize=24;fontFamily=宋体;" parent="1" source="ek3AfG3ewywKdCFBDNp1-36" target="ek3AfG3ewywKdCFBDNp1-39" edge="1">
          <mxGeometry relative="1" as="geometry" />
        </mxCell>
        <mxCell id="ek3AfG3ewywKdCFBDNp1-36" value="&lt;font&gt;全局信息素更新&lt;/font&gt;" style="whiteSpace=wrap;html=1;fontSize=24;fillColor=none;fontFamily=宋体;" parent="1" vertex="1">
          <mxGeometry x="280" y="540" width="190" height="60" as="geometry" />
        </mxCell>
        <mxCell id="ek3AfG3ewywKdCFBDNp1-38" value="" style="strokeWidth=2;html=1;shape=mxgraph.flowchart.annotation_2;align=left;labelPosition=right;pointerEvents=1;fontSize=24;fillColor=none;fontFamily=宋体;" parent="1" vertex="1">
          <mxGeometry x="470" y="542.5" width="30" height="55" as="geometry" />
        </mxCell>
        <mxCell id="ek3AfG3ewywKdCFBDNp1-42" value="" style="edgeStyle=orthogonalEdgeStyle;rounded=0;orthogonalLoop=1;jettySize=auto;html=1;fontSize=24;fontFamily=宋体;" parent="1" source="ek3AfG3ewywKdCFBDNp1-39" target="ek3AfG3ewywKdCFBDNp1-41" edge="1">
          <mxGeometry relative="1" as="geometry">
            <Array as="points">
              <mxPoint x="375" y="800" />
              <mxPoint x="375" y="800" />
            </Array>
          </mxGeometry>
        </mxCell>
        <mxCell id="ek3AfG3ewywKdCFBDNp1-49" value="是" style="edgeLabel;html=1;align=center;verticalAlign=middle;resizable=0;points=[];fontSize=24;fontFamily=宋体;" parent="ek3AfG3ewywKdCFBDNp1-42" vertex="1" connectable="0">
          <mxGeometry x="-0.2356" y="-4" relative="1" as="geometry">
            <mxPoint x="4" as="offset" />
          </mxGeometry>
        </mxCell>
        <mxCell id="ek3AfG3ewywKdCFBDNp1-39" value="&lt;font&gt;是否满足&lt;br&gt;终止条件？&lt;/font&gt;" style="rhombus;whiteSpace=wrap;html=1;fontSize=24;fillColor=none;fontFamily=宋体;" parent="1" vertex="1">
          <mxGeometry x="265" y="630" width="220" height="100" as="geometry" />
        </mxCell>
        <mxCell id="ek3AfG3ewywKdCFBDNp1-48" value="" style="edgeStyle=orthogonalEdgeStyle;rounded=0;orthogonalLoop=1;jettySize=auto;html=1;fontSize=24;fontFamily=宋体;" parent="1" source="ek3AfG3ewywKdCFBDNp1-41" target="ek3AfG3ewywKdCFBDNp1-47" edge="1">
          <mxGeometry relative="1" as="geometry" />
        </mxCell>
        <mxCell id="ek3AfG3ewywKdCFBDNp1-50" style="edgeStyle=orthogonalEdgeStyle;rounded=0;orthogonalLoop=1;jettySize=auto;html=1;fontSize=24;entryX=0;entryY=0.5;entryDx=0;entryDy=0;exitX=0;exitY=0.5;exitDx=0;exitDy=0;fontFamily=宋体;" parent="1" source="ek3AfG3ewywKdCFBDNp1-39" target="ek3AfG3ewywKdCFBDNp1-8" edge="1">
          <mxGeometry relative="1" as="geometry">
            <mxPoint x="240" y="270" as="targetPoint" />
            <Array as="points">
              <mxPoint x="200" y="680" />
              <mxPoint x="200" y="290" />
            </Array>
          </mxGeometry>
        </mxCell>
        <mxCell id="ek3AfG3ewywKdCFBDNp1-51" value="否" style="edgeLabel;html=1;align=center;verticalAlign=middle;resizable=0;points=[];fontSize=24;fontFamily=宋体;" parent="ek3AfG3ewywKdCFBDNp1-50" vertex="1" connectable="0">
          <mxGeometry x="-0.8936" y="2" relative="1" as="geometry">
            <mxPoint as="offset" />
          </mxGeometry>
        </mxCell>
        <mxCell id="ek3AfG3ewywKdCFBDNp1-41" value="&lt;font&gt;输出最优路径规划方案&lt;/font&gt;" style="rounded=1;whiteSpace=wrap;html=1;fontSize=24;fillColor=none;fontFamily=宋体;" parent="1" vertex="1">
          <mxGeometry x="236.55" y="780" width="276.88" height="60" as="geometry" />
        </mxCell>
        <mxCell id="ek3AfG3ewywKdCFBDNp1-47" value="&lt;font&gt;结束&lt;/font&gt;" style="ellipse;whiteSpace=wrap;html=1;fontSize=24;fillColor=none;rounded=1;fontFamily=宋体;" parent="1" vertex="1">
          <mxGeometry x="315" y="860" width="120" height="60" as="geometry" />
        </mxCell>
        <mxCell id="ek3AfG3ewywKdCFBDNp1-60" style="edgeStyle=orthogonalEdgeStyle;rounded=0;orthogonalLoop=1;jettySize=auto;html=1;exitX=0.5;exitY=1;exitDx=0;exitDy=0;exitPerimeter=0;fontSize=24;fontFamily=宋体;" parent="1" edge="1">
          <mxGeometry relative="1" as="geometry">
            <mxPoint x="510" y="560.1399999999999" as="sourcePoint" />
            <mxPoint x="510" y="560.1399999999999" as="targetPoint" />
          </mxGeometry>
        </mxCell>
        <mxCell id="ek3AfG3ewywKdCFBDNp1-61" value="" style="shape=image;verticalLabelPosition=bottom;labelBackgroundColor=default;verticalAlign=top;aspect=fixed;imageAspect=0;image=data:image/png,iVBORw0KGgoAAAANSUhEUgAAAKkAAABqCAYAAADHqXE1AAAKR0lEQVR4nO2dT2gTTxvHv3n5HVt62B4ae7GRtniR1pKCUFAaKwYVPCiiYPRgiyAopBXBU296SP8dLIgVikIbsIdC0lbQ9GKwB2kjxYsNpqdmezCHkr3Pe5BdN9Mk3T8zm8Q+H1jopu3MtPvdZ+aZeeYZH2OMgSDqmP/VugEEcRQkUqLuIZESdQ+JlBBKJpNBf38/VFUVViaJlBCGpml4+vQpTp8+Db/fL6zc/4SVRBx7Xr9+jVQqhUQiIbRcH01BESJIJpO4du0aAoEA0um0UEtK3T3hmkwmg/v37wMAOjo60NzcLLR8Einhing8jqGhIRQKBQBAOBxGU1OT0DpIpIQjVldX0d/fj9u3bxsCVRQFg4ODwuuiMSlhmWw2i8ePH+Pjx49H/mwoFMLy8rIQq0qWlLBMZ2cn1tbWwBgDYwyRSKTk+7FYzPje58+fhXX7JFLCEaqqIp1OG/eyunqAREo4ZHNzE7lczrjv6elBZ2enlLpIpIQjfv78WXIvw6vXIZESttE0DWtrayWfdXd3S6uPRErYJpvN4vv378Z9IBBAX1+ftPpIpIRt1tfXjblRABgYGBC6DMpDIiVsUa6rv3nzptQ6SaSELYrFInZ3d4172V09QCIlbMJPPcnu6gESKWGTDx8+lNzL7uoBEilhA36VyYuuHiCREjaoRVcPkEgJG/CrTGfOnPGkXhIpYQl+6klmQAkPiZSwBL/KJDOghIdESliCX2UyB5RMTEzg3r170uqWItJ4PI7u7m74fD60trYiHo/LqAaapmFqagpzc3NCypubm8PU1BQ0TRNS3r/E9va28bW5q08mk5idncXLly/lVc4EUiwWWSgUYgBKLkVR2NbWlsiq2MrKClMUhUWjUVYsFoWUqbc/GAwKb28jwz/XQCDA8vk829nZYZcvX5b+vxIm0nw+z4LB4CGB6lcsFhNST7FYZNFolCmKwhYXF4WUyROLxRgANj4+LuwFaGTKGZ+uri4WDAbZzs6O9PqFiLSSBTVfkUhEWD2KorBEIiGg5ZXRhRoKhUiojLGtrS2mKIrRM05OTnr2fxEiUv2BDg8Pl7xZi4uLhkjdPmzziyBboDok1PrAtUjz+TwLBAIVu3MRD9osUBEW2Wm9JNTa4FqksVisqnD0bsKNSHWh6wN2EWxtbbFgMHhkeeZuTtS4mrCHK5Hm83l269atqg9af8hOLWAikZDifIVCIctt0l8SL4caxF+ETkGVw41I9aGEaCuqi86q4GS1g7CGZytOToIRFhYWjKgbURE3yWQSY2NjtsLM/H4/BgYGAAC5XA4LCwuu20FYR7pI9/b2UCgUbG95VVUVs7Ozxr2I4Fo3KQrN9b948QKZTMZ1ewhrSBcpH95lFbMVFRFc6zZFYV9fHwKBAACgUChgfX3dVXsIG8gcS+hjObvLouYxIFxOX62srBxaCXOyTFtpaZCQjzRLqmka7t69i1wuh5aWFrS1tVn+XT4C3K7Vy2azCIfD8Pl8uHLlCr59+1by/UKhgLNnz8Ln8+HixYuWAkqampoQDoeN+1wuh83NTcttIpwjTaSPHj1CKpVy9Lv8Zi+741lZKQr5dvDtJOQgRaQTExN49+6dcW/HSSmXUrC9vd1xW0SmKGxvb4eiKMZ9Op0Wel4RUR7hItWneMy0t7dbtlZ8V293qHBUeW4iytva2tDS0mLcO+3yVVXFqVOn4PP5pF2tra3/zAyEUJGap3ic4nQ2wGp5olMUim4vcRhhIlVVFTdu3CjZYjA2NgZFUWxN5JsjwAF3R66ITlHY3NyMjo6Oks/49lrB7/fj169fxrhYxvX792/09vY6/lvrCSEiNXvyOrFYDOfPn7c1ka9pGvb29kQ0CYA3KQr39vZou4lkhIiU9+QjkQhGR0dtd4V8Miy3iE5R2NTUdMiJ293dRbFYdFwmcTSuRcp78qFQCK9evTLu3XrndpwuM7VIUUjIwdUBuLwnHwgE8P79e0NU29vbrr1zp9QiRWGj4/P5PKuL2Tg+zLEl5T15RVGwtLTkSW4gK9Qqb1Gj4qVA7dbnSKTlPPn5+fkSb1J3gtweiOrUMalFisJGxo5l87o+2yKt5MlfvXq15OdEO0F2qFWKwkZH5pQYf9nBtkgrefKVsOP4lJuHdIKXXb2TnoJWnOxhS6RHefJm9vf3cXBwYKsxoqZ4ZKUoLDeP63T2gbCOZZEe5cnz6BH51QSiqiqGhoZKgjTcCsrrFIVO2ksrTvawJFI3nny1ZcOFhQWcOHGipBx+derg4AD7+/tWmglAborCcuNsmSfBEX84UqRWPPly6F1uJe88Ho9jbGzskNdt3qYB/AlQtrNUKjNFIT+EIYfMI6qF7ZfL8WR177t5r7o5+4eqqiwajVbNRhKJRBwnOzP/rnmbSCKRcL3lw5wDAJR+xzOqipQXi52982aRlruq7TPixWC1XtkpCvm/iTKaeENFkfIPxK7V4IXGX9USMzjdiCc7RaH5paWNeN5RVqS8wJw8EF5oZgtqJa+o+SWxs7tTVopC/u/xMnHacUfqluadnZ2S7cR8ashq8KKodQ4mXvyUCdo7pOeCcgPvfNVLW2gs6i11LVKzNa2l9aKEZbWlro/I8fv9mJmZAfBnvnR6erom7TDHAszMzFDIn9fU+i2xgt7V1sKamq1orYccx5WGECljf6d/vJ5Ap7z5tadhRFqLvPn6VBwJtHZ8+fKlcUTK2N8znOCBhy0i1z/hnufPnzeWSHX0LjgajUopf3FxUfhpe4RzGlKkjP1dKBBp6bw4bY+wj48xj3dgCUTTNCSTSWiahgcPHrgub25uDsViEcPDwxRtX0c0tEiJ40FdT+YTBEAiJRoAEilR95BIibqHREq4QtM0vH37FuFwGK2trSXJKUZGRpDNZl3XQSIlHKFpGkZHR9Hc3Ixnz57h0qVL+PHjh7Hvf2NjA6lUCufOnXOfSaWWk7REY6KvyAFg4+PjFRdTRAXnkEgJy5hjJ45alUskEoaQ3QaKu0qiSxwfNE3D9evXjWR18/PzhzIp6ugZb8xJOtxAY1LCEuZsiuVSfZrR84DpuM5q6NgGE8cG8yZEK+PLYrHIhoeHjR3CbgOAaO2eqEomkyk5gj2RSFS1ojKg7p6oyvT0tCHQUCiECxcueN4GEilRkUwmg5WVFeNe9JGXViGREhUxW9FAIIA7d+7UpB0kUqIs/OEYbk+RcQOJlCgLfzhGLc8GIJESZZF1OIYTSKREWZwckS4LEikhDTsHclSDREpYwq5ljcfjePLkiaMjN3kowIQoCz8GTafTUFXV0hr8xMQEZmdnkU6nxThbrhZViX8Wc2ZrWFy319fsRWc/pO6eKEtnZyd6enpKPkulUhgcHMTq6mpJN57JZDAyMoKTJ08ilUphY2ND6Gl8FGBCVIQPLjmKUCiE5eVl4fOpZEmJivT29uLTp09QFKXqzymKgsnJSSkCBciSEhbQNA1v3rzB0tISvn79anze1dWFhw8fSs+dRSIl6h7q7om6h0RK1D3/B9tQq9w2o7d1AAAAAElFTkSuQmCC;fontFamily=宋体;" parent="1" vertex="1">
          <mxGeometry x="509" y="582" width="58" height="36.38" as="geometry" />
        </mxCell>
        <mxCell id="ek3AfG3ewywKdCFBDNp1-63" value="自适应算子" style="rounded=0;whiteSpace=wrap;html=1;dashed=1;fontSize=24;fillColor=#FFFFFF;strokeColor=none;fontFamily=宋体;" parent="1" vertex="1">
          <mxGeometry x="670" y="600" width="150" height="60" as="geometry" />
        </mxCell>
        <mxCell id="g9GpV2_E2A6Ipf0cs0Fw-1" value="" style="shape=image;verticalLabelPosition=bottom;labelBackgroundColor=default;verticalAlign=top;aspect=fixed;imageAspect=0;image=data:image/png,iVBORw0KGgoAAAANSUhEUgAAA4gAAACLCAYAAAAjzLf9AAAAAXNSR0IArs4c6QAAAARnQU1BAACxjwv8YQUAAAAJcEhZcwAADsMAAA7DAcdvqGQAAC5PSURBVHhe7d29bvNMtx7gpRxADmBXKUgXho+AAnYvuXElJJWLDZCl1LiKS3duyJLC9wVwlQ1VakzWu5COwFBhMkiq5DCUmeFQGsmS+E9xyPsC9L6P5V+Ji8NZnJk1oz1DAAAAAAAAMHj/Sf4fAAAAAAAABg4JIgAAAAAAAAhIEAEAAAAAAEBAgghwLo4p9BxyxmMajRwK5dMAAAAAAH2HBBEgFYdJUmiaNF39EL1/UbT3aSI/DQAAAADQd6hiCsDEoUOv0yVtySI3+KL5xJCfAQAAAAAYDiSIACw5HLHkkMimIPIJuSEAAAAADBWmmMLAheSI5NAiF8khNCAOPXK8vCtZY/Ich7wwlh8DAAAAtAsJIgxbuCaRHrpfNEdyqJ84JM9zaDwe0dhrOqniyRsvXDSi0dhjH2UL2debH0Qvz3lXsho0f3uh3YfZwusBAAAA+AsJIgxauE5GD2fPyA61E7LE8PWDVoslbbfyucaw5HBs0mIpf9F2QZ8Zg4KxN6YPeqdoMy82Mm1MyN9ENFshSQQAAID2IUGEAQtJ5If0RA/ID/Uz8Wmz2dAmsOUTzYm9T9q9R8SXbO/3EbmW/MQ1LHk1F0/07k/oZmiFHl2efWrQfBPQ08IkB/usAAAAQIuQIAJYj2TKfwJcYsx98g/DgAY9z25liMm6Vst9y9giJSbvY0cPV79oQm8sE11+5JvOCgAAAFAHJIgwXPEv/fD/Pz3cHuWB3uDTPkc1DMlFO6LHa3cVxLrWjGnLfO0kn7JKt29OGM8zsnJMZwUAAACoCxJEAIAiYo8+xNTkS/ioIP/k9WnLIU9SzSkt+HJGlvyZoxsFdowH9pOIlmtkiAAAANAOJIgANRPbGjjXpwXGfPRIVsPE+jJOp60dQnLMBW2vJoAR7Xjid2Pa8mS+ob1cN2kHfE3jnjZXS+ia9Mhnsy7X7DdDUVnnYjadYrMK1iYhwE4gdqArEItwD0gQAWrDG2G+rcGOXt7mJ9NWeQOfJoUmHz1Kq2ECo2ztUOki2DR2fMdTsS3K1QQw57TlpHquTS+Zu18Y9MCHENlP/cW1vYDr52IxusRmNbH3QQusdZUQO9AViEW4HySIAHWIPRqP+Joyvq3B6Yb7sefQK2vg6WVGdlb1y6FKt3b44VMux9S93R1iCh12fLcW2UHAUrsroh1lp/4x/fIs0n7JKGIDpdw4F0vpfGxWFdInn++8XdH30HuOiB3oCsQi3NseYKj+Ye35KUDWP+UTJUXunuV9ez5fMFuwZ8lF8nvZI9e3DEq0dy3+3lh7N5JPZQls8V5aZ98QufL45nlkHIjATr5OfBk/3te+Xv4tN3+ejJfzv/ea5HcXeD+GrNC5WFSJ2NRBGrMFYrKXEDvQFVrEIvs5tr13AwR0X2EEEaCSdE2aTYGfZzxIrimDK5L9/2z2ji5Mp9K6O4Ov9RP7Fh4fLGnkC//+PL+/cex45dPpkl1O3YgOX3athKn5SFmHN/5esVeXUeUUSih6Lp7hd+zHt6Zf1Reb3RHLokqJ7eKzJ6+rKMQOdIVGsfizpMXUpNEY6xv7CAkiQGnHNWl24GO6YG0m5IsiLkua3rzQtUBseL8VSeWhkAzf4+IaWXWUfn6v/t2RqGJzvcrpKTkdNffXD1XVc5F9/+uCWNbOuk+3dCg26xB+JtV0D5Y0vIK5iB3oCp1ikSWaXwG5fN3MViaKozE5LFFEbPfEHmCoKk4xPUxhtNx9/kkW6fSO5NHIDJJeOL5PmdPerkwxvUQcs7xvejrN5/z48t+nPMd/pvojkymh9v7yb5FTjOU3RJl/8unXw2XlzsWj5PvzTrkqEJtFFYjlOohYtawkztNHyfdQV72JHdCevrEYsbZEbUfYNdENSr0G6A6MIAKUIgs7MFbm3ToozqDnWTJZc7t4vbmgPk6G2Gi7+67xzqWc5mO5FG0uVI+T+xeKqrSrGb0pt3onL/zO7JWqo7LKqf0yIV686Dt59jrl6+Gaaucin0IsRolzj9Lmj81Oi5P9PK3ZF32xnuLBoIrVIHagK3SORYMm/oY2+4gC1yaLtrRcTEUxHMcLMaKoK5koAgxPhRHEZJQouVNW7OZb30cQo30UuHv7fFSCvU+8sEv2iJkiHcHjj0tvlPp55XHrbqi4w5r5pgfs7+c/68YoYHrn1b50pzc5xhf/jsOopJ0rbsTfe9cRnWjPLvh7S4nZ249r71lzSp+L0fE4ikeRkzErNstqcQTxZKT7/Fyq5TUhdi5qKnbggu7HYKpfsSjf9/Rns0fh639u+hxj3SBBhOEqnSCyBjltbAp33vuaIP69IFx+FLn4qe+VZo266OhX/ZuTOLtfjJx1PPI8Wv9ji5+LETs2WXGanaA1FJutJYjJ+6b+nmMHtY7XhNi5TuN2TSs6xGCqr7HIbxif/p38pmp9hU91Osb6QYIIw1U2QZSduHKNTR8TxLSRPl93cCVpLJBUq53W5jvN9ao2+pfEyf1e82mc5n2038evci4qnbKid+2ZRmJTvp6mj/vFtUrqe8ke5Y8lYieLzu2aHjSJwdQAYlEkisoxqZ4oanaMNYQ1iAAFhWteYyxhXdvuYCjikJzRlJZbi9xoQ/58oqydMGgy92kTuadbPxRY42Qqe4Jsd5H8lx74NhvRbEXm2KFCFcDZe+qNTVo9KZVTWxY6ye+PImUrENaTEPi6zPS5s0eZquxVVDoXw7WoFihYMyq664i+sSnXOtnvdBJekxeSR1hYfpSrbojYyaZzu6YDXWIwNYRYNCasL7DZUxS4ZLNfuV0uaGqOaFz0+ijpdox1hAQRoJCQlLacnga99wAv5JKU5Lbcr9POpsqY07va86Qt5b0OGQ9i04jEcs1+o15Ekvj+SOvvvH95TN7nmug9os2drmS8eM76Jfn9hnJM005Md4oyVTsX0+JGXJnXpG1sig6lRa5aWUmY0Jt77CyWKVaD2MlH93aty/SJwdSwYtGYzMkXiSIvZsOame2SJYrjQkVy9DvGekKCCFCErCqZsK7ulz4EoZMkh0Q2vWeMdKl3KQs52Xj+SmXQjhMXxHneZM+gue/TfHK/y5sx98k///2y4mWeY92aSudiTN+rpGIgV+pGj5axGScb418ZaTCeZ8pr2tLis1h3EbGTUw/ata7SJgZTA4vFmM86Go/InC5ZC8NYNgXRjRvMF2h3jDWFBBGgiGiXNGpDFzrE2nfBct8yN/Q9uUtZWv6RR+BidpjGYiuOEZ/GI58tI/5eJXFvv5TYvLkhVc7F+JuO/Sqbqu8ioklsyo3x7fcLW7dw56P9NYwoIHayoF1rWidjMDWQWIxDL0kM+awj9jdbIjHc037j00QdBiyp08dYU0gQAXTBkjLR2a/p4ZTu+clRCMGiWdFFD4Xvkh794FZ7fiwZmPIrMcen8ZQ+4Mf9uXqzH6PaKaupQ5EZm3nOX3nXZbswL39eeZQ5nGIKluWe7Nt5LtnHM7WkdaUMEbGTB9q1JvUwBlMaxGLM2r2xGDFcJImh7YrEcCMSQ/lFlfX4GN8REkSAAtT5/oOl3rXMuSj+5H0rspDeeKA6xh6hgkMRhDruUNenyrmYrlXhSncodIvNw8b4GetzaipWIyB2LkO71p6OxmCqn7EYJ4nhSE4lFYlhUlBm489rTAyljh9jXSFBBNDFxL9Ylavso2wNlMNUDibvYvBol34Ha8KvTW+Dek3eKODl4jg+nafkAT8s/M8xlVgPalGIFtcR5zl/ZRU+y40uf155FD2c4eeCnbd51udUL1aTQuzAvfUvBlNdjMWYQo8nhqZcY2gliSFrr84LytSpv8f4vpAgAhRQz1o6nR2ncvCLUr7ppcqFLGN6G9TJYDnJJkko+HQe+Wwhh4X/ZaYSN6v0uagWhShRFl5PyTmYtwNVtViNgNiBe+twDKb6EYvJeneeGE4XSWJouzwx3CSJofyqRmhwjHWFBBEA8jtM5WDyXpQO32OR+1Vw9PCkwlvJKm1Q2mG0uEed4TIj4BdpFJux98HOwQIdqBqK1SB2bkC71oo+xmCqE7HI9+wVhdBYYrjcsr/nmBie7oncnD4f43tDgghQxElJ6OFVn1PXPOS7KB0L2tzcKzEXTOlq17GEeqUOSFNKnYs1lIW/qMuxKUf9zzfGz3BerOajyEZliJ0C0K41o+MxmNI2Ftm1/XVKi6QkKdlB1GpimNDkGGsKCSJAEYMuLqCuech3UYq9V1FWn109aFMmOzwpAf5EtV0HIYeIlKWjJ0Kn2rYZtSh1LqqvqWJBA11iU4zgX9oYP8PkjU6XIn6z7lheiJ2b0K61oOMxmNI5Fp9sclliuN+wxHBi3CFB0+QYawoJIkAhE1JvrA+qPLk6vTTHnUZexcxk2SFfpL4vWSDltPrpI+FGe4uU431MDpK1Jh+PXSgGUOJcVGP4UBY+Jo/vE1nwVNYjNuUIfqnpVwY9z04yxPzFahA7N6Fda0HnYzClaywaNPd9mtdekrQAbY6xnpAgAhSkTr3aFp5jev2OV9ep00vZK6fVjd5i7I1FFTNejZEvUi9LrX6KKSR3tF2QKfbfM2n6M6OvanOFa1P0XFQ7Q2lZ+NB5pd178T25tIjNrI3xM9RSrAax8wfatZZ1NAZTiMUadPwY6wgJIkBR6j5hhYo38L2BlDt/DN9jrOgdv/s4nV7K8c28x14o79ol4tAjh2+Ku3pKNsOt1EjHdLwO5inPD82zKShaaKhJBc9FtTNEv0mBhfXjV4ktX/SITXFTp0rl4BqK1RwhdhJo1+6nYzGY0jIW+YglT8jqeIyp0BLnmzp6jHW0Bxiqf1h7fgqQ9U/5RH6RK7+XrL0bySevCvas8Zdff/1hZf+g+wns499qufsoCvaube0t5e/n74Vlu/sgqul1RO7x59uBfBLaFLBjnB5fix2DLkZooXNRjSnLznHuXtFUbMrzrJa2QP0ba3zk/dsQO1egXWtN4Ri8dM6IYxTtXev43PGwnT5//HpJvW6SzXoC1+kXixdee+lHnn7UZTq0M7pCggjDVSFBZM3SIenrdGJXk8BOG/L2Xm+xJBw65XAD4fTYRa4tOiT8Qi4+DlzxdbyTc9o9Sc6v9Otua/9cRGw2LEf8IHagETz20sSH3wyVT7MD9yceE9Hh+ngxhkSSyGI081gjFu+DHT/ZriTHPM+xGgYkiDBcFe/WHxpX9SLSS8cLV9Zd0Poc7062dbGEmpzfhU+TwUNnJHnu5GP2OO3Py5jLeW61ey4iNhuVJ37OHogdqFd6zTsmTjxOrh+z6zHHk8e8xxqx2LKIHTf+HihJYZHj1XdIEGG4Kk/nGkgDq06TOe2JNSf9na1cKKERrKOfdLL4xZd1+nlSKD+lSqcI/T2H2MU7d7y1eC4iNtuRI34QO9AY9Vixf1sZxyxN7k7DjieORW6qIhbbI5N69fiI98Q6O4bDhQQRhks2kNUa4rSR6e8UDXV6aTsNZ3qRxBQs3eW6I37tPGTPF4u3Ns5FxGabMuMHsQMNOlz7/kxjviAd+VYDj8dn4YsmYrEN6bFtp0+jJySIMFzXOhdFpReGXt6JSy9W/FHkTmh5ScONTlQvyHPj5jl2qWPF467MlbvhcxGx2bKs+EHsQKNYLIlEKt+17/wY849LJSCIxYbJfk0v+2z1wTYXAFUZc9pEAdm0IHPskRa7VuQUex+HbTkst+mNZ5MNbqdLi9xoQ6j+3h/HTYzzib01PZbZm6GxcxGxeU9F4gexA3Xh17+fJ5ssdhWc5oiJZD9DuUdw7NHH0ia5TWExiMVmpduNPT1gO4wbkCDCcP2/ZAOg7eo/xP8rMSbkbyIKnlZk1rqnzz3F9L1K91uyaPbcYFMah+SMkw1uoz06UX0RfhPNRJ9pR1e3fzYe6In//+c36QiFDn0++OVjoO5zEbF5N5nxg9iBprBYet2908b3k71Atwt6zQqIyRu5Fv/ST/K+V7S1X8rfVEUsNiaWmz9aj6b4P1yGBBGgNgZN/A1FwYx2nz0YSQw/aZHmh/Z7gxeUmLzPNT2+R7TfYIPb3gg9+n2e01zcVV/SWu7+HMfx2blh0iPrVCVYJ2b9UmLD53N1nYuIzbvJFT+IHWhA7NH445G+ZDBNfD6axxO/14xEzaDnGQ/IJS0WRG6ZkewTiMVWsePuVM7Ee0RONYUzfI8l2+7f/OR0g3N+6C/PjY/Y5+29O4SNYP6ZFkD4h3wCAKoQa1v4uo6ItZ+HBS5yvQdrcHg1wL/tTlowgX2OtT1lluxAPxSPH8QO1C2JqfN1r4eCSXw94s3uEda3dV66xlNZh5n0+S9X2h4qJIh/8ASJNQQ92izzsKGwOCGOj78dNUnuDWP1MEE+gQQRoFZpJ+q8c5UWRbCvNKoomgBcmfhB7ECdknhKHmkf6Zgc/v3cJfxn3CzMBXcnti45HM/r16YhG/H/sDcIOD6twFzQ1g4o8ie9GIaPPYdeV0Sz90fafSxomU4ZZFgDd2M6Tkze2KTFtseLmf/HmEb/xt4Q6x+03/ybfBIA2hY6I1q/3GqPAC5D7EC38L7TK9EX1pyC3rAGMaUkh/ueJIecMfdps/FpPpmTv0nm0edj0HwTkWttaWH2pegKAHRO6KCDD+UgdqBr4m9a0YyarOkG0AYkiEJIDk8OWfoUlLnS8ORSi+0N1AX9efAkkSeVPEl02LsEAFAjXhTg9w0dfCgOsQOdE5P3uqCndxSCAf0hQRTTAaZiTxQ78EuUJE4aBJo997RBmJAf8HHHfPsAAQDcwvfhGvG2hHfwv5/JxzwsyAmxA50TejQejWgkHiYtyKXKxUsBOmDwCWLsvSal/K1yJ3Xy/TXvERc6orEZd2Vep9zbJ9c+QAAAV/H2gzW42xV9RujgQxGIHeggZSs9i9evwDYS0BMDTxBD+pQbvVklRgBjb0ym+P4neuh1i5Du7cNzxKx9gDTyrzMSr+rpX8SHANA0vq8Xr569IX+CbhQUgdiBDjLmtEl2BKCN35/6FQANJogxhZ5D43E69J71aH+NW+gkU0tZelhsBDAOyWGvK0kOGfulxNRUvRjPMpni6xE/e7IaMdrx+9FkPSq3AAEAAAAABqyhBJEnUCZNF0vayhwqU+tJVkjrJDvkw4e5Kk7FIUt4eTJrssRSfV3L6SHR7cy00LoZzyQHEdnrXfeiYE38+yP/BQAAAAAAXAMJoiz6kjcxlOyXlsfgwrUcPWSeHnJNCzAmvpxKoG4XwfcJTKYXiCkGvV0XYdDDk/wne+c+epAIRzsxfljv+lEAAAAAAI3VniCGjkmrp4AiJWnaiyqYjOVSlD539mi7VHV4GD4sMcVQTS5zjj72ganskbHdRfJfupIjyAM6fgAAAAAAWWpNEGOPb1obJQt1lU53moyVKQTTDGV6KfNUsMKMOjWxO6+pecZxCLH4NFNZmbWuh1Nxjmu6/nRIxw8AAAAAIEutCaIx9/9WF4s9+hDJmE3vXZl+Gf+SkuJRsQHEmL5Xx/mzRZNLrZmPslAN90O/ms4y5dVnpyI7dOkLpdIBAAAAAA4aKlJzFH+vRKXITlX6lNUrS4m/6Zgf2tT20snu2FKhWaYT/+LU4rKPUlOS45A8R25Nwqc7Y78iAAAAAIATDSeIx30GWy9C0xQ1uSyT9OaZaimGt/ieg+blzyuPqlMtq/jRZAgxlokhrz67+GGHLYhoj+QQAAAAAOCPZhPEQzGXbo20VdneQC1u05ukNy/jgZRViFrg00lNlhiuaEZBxBNDbLIMAAAAAHBNownioTiN+9aTjeTV4jZF1y5KeaZayqqvlssSmkufVx5tV38FAAAAAID+ai5BPBSn6d4+cyfVOItQi9tgewQtGPMNRVFAM1rR1ORTdsfkhPrv4QgAAAAA0ITGEsRDcZoeJVKH18QMcnuEk+qvBSu43nGbC8OY0Nzf0J4liq5NtJyyRHHsEdJEAAAAAIBTDSWIx60gOplInWzXkLca54C3t7io5BTbe5KJYuSyo79dkIkkEQAAAADgREMJYkS7Yy51InScYhusN6FUsRX1NQ10e4uT7UGeqFCO3IVtLiQ+7VQs82RJ4quHFBEAAAAAINVMgnioXsr64KtvOUoTs+RwTB+PXShYM6GXpA6MkGu7BuU1Hbe3iMkbs4R3IDnGSfVX65F0G0BUTfyApfk8R/y8/w0LAAAAAICOaK5ITYpP5RPrxkya/szoa96NqZkTJUPc5phjqiZH6fYWofNKu3ef9Nk14frIbh6R8s36r8FMbxIsaY0MEQAAAABAaD5BPLAp+OrQ5uSTFzGCJCzXmaNIanJEv8nG6+vHL422mYgpVkdBmeWHV2D0M6ZjjmzTe0cS/SrMx2Qlqi4b/gMAAAAANK2ZBHHiU2Afy8BYdkDRvmsjbRN648VKhB/KyhEmb+6hsM1ytSZ625CvRZIUkiNHcM2pmh4y2wVNzaQq6DhrLV78TYcaPYcptnpLtzvJM4IMAAAAADAEjY0gTvi2ArKgyMaf5B85jJPRufFoTGrOEnsOe44lMnJ/gzj0xNeN+BpA8UwqSYjSr7vFmL/LUcQtrb4zEiRjTpu0SMrGp0ZzQ1nQZVPLL5mQn/7dNx5Zv+u4xYdF7lsf0kPmpJotAAAAAAC0OMU0h9ijsTmlxXLLkpEtLT5lMuiNyVwsRYLCH+Lj6UJ8HW0vryHb/vzK4ji3HEcRj8V04C9l2xL3q9nkGKBH+I0sx8u+WXUUk+c45A2l8hUAAAB0TrcSxHSULnKTkT2+NpAlja+7d4rS0S4+GjlPRifTaayna8j4iFlA9tNDrlFLY/5FIkfElgfXhZ+04Pmh5XamyBCAwGcc8NkF4xzTpCvhidtYTMce5dw/k1dtNj+IXp6LjLgbNH97od2H2fDrAQAAALisWwliiiWKycjekqavRF9XpqhOXq7sZhiuWa8sb6eMdcg26ZYHryfTWoFjHeMPvnbRIrdLRYYAQpYYvn7Qis8uSAa4G8K3szGTGQvcdkFycsNVfJbDB71TtJkXX3ttTMjfRDRbIUkEAACA9nUzQWSM55lYH3ZzOwW5huy0yEhIzvqlYHVR1iGLeBGaLS1e840ODEXosI7xliWH0QZTS6FbJj5tNhvaBId6xI2IvU/avUdyvW6UzDi4hSWu5uKJ3vOsveZrqS8mm8mNq6eFSTmWUwMAAADUprMJYqro2sDYW9NjmSIqfHprxEcSF2TmnELWb7GYIjddIjmEYTPmPvmHYUCDnme3MsSQnOmSLPctR6VfPjq/o4erX5iskebb0aA9AgAAgLZ0NkEMv4lmYt7njq5uQmA8kJhkmhakCR36fKhQYVRO7QqeVmSeVVEdlJh1cscmTX9mFO2RHAKooh3Royk/OCf2GrVo9pxx0vC1k3zaKj3StR/FiZkUOaa0AgAAANSlmwli6NHv85zmLzxDPFYpjeP47E66SXKvc6bM1NJLDLFFRxTMaPc5xDv3MXmfa3rkU+o2WHMIcCL2SCzJvShdr/tEDzdOnNAb04hXa+ZLGlnyZ97ah1TeBFteKtUMAAAA0IDOJIihI6sDsg6Y8/ucjFpNXkTxGN45ivnoYGRcTli2O/p01vRSPTs8MCZz8v0hJkgGzX2f5oUra2joP+Tejj//T3xYF7G1gXP95kIs9/rkFTGxvoxjiZUWWzuE5JgLFjPXEsCIdqLa7+1RwQmvwizXTdpB1j6k8iYYr+icPAEFZJ2L2XSJzapYm4QAO4HYga5ALMI9dCZBNHkviG818f1M/qGzNKFkEPGDPuntwuigQQ/JHFN6fPNzrPkBaBJvhPnWBjt6eTu9ucAb+DQpNOVen5BStnaodBFsEju24ymJwcNrCWD8y1oiJscWO+Ga/yQ7R7HlYxt3spsPZLh+LhajQ2xWF3sftMBaVwmxA12BWIT76UyCmO5teH4nfeLzO+wbpUjEX3aAdXJQwr8k26RYs38V/68k9mg84mvK+NYG/snWBrHn0Ctr4OllRnLrTjiXbu3ww6dcdm39Ly/YlFTztYNkS5yLol0yIp0ppl+eSdovuKnVhBvnYimdjs06hPTJ5ztvV/Q99J4jYge6ArEId9bZIjW5hA6tX/Y1rDsEqIA35HzqoR3Q/sLWBrwK5oY18HM+bVnuuQmXGDRnFzDX2tLCrH4B43sRio3tczxu7TfIk8PpMrkR5Zu/9JNjhPCm+JtWrD9uXa10A6VlnIvl1RubnSIKK3FbWg05Q0TsQFcgFqED9E0Q2Qnk/F6adgrQpnRdmk1BrmBUCyvBX/wCxpNofgFzKq27S2cl5HlcWwPIk0yeHFpudGxrriV2cl/WLPE3X/uao9IpFFT0XFTwDlnm9kb1xWZ3xLKwUmK7+OzJ6yqqQuxwmfHTx9iBZiAWoRu0ShD5vnyHQjYnaxUB7uG4Ls0OsAa2PhPyRRGXJU0zO+0NEhveb/nBPSaQfI+La8633bkiEpVsblc6PZLTUXN//VBVORfZ974uiGXsrOuUpSOxWZfwM6mme3CsGj4cVdvxvPHTs9iBBiAWoUP22oh44b89kbW3g0g+B1DBPy0WTyymrH/IJ4qJ3PT7XRadeUV71+JxnDzsQD4NZ47vk+VmvLuBne/riojcvXXp2PLfpTzHY0A9hkkbZe+vH9Zgzy7Le3b1Fx9FmX/y6dfDZeXOxUTyvdY+f/gUiM2imojlG0S8WlYS6+mjxHuosyqxwxWLnwZjB7SHWIQu0WgEke9PyKeD3S5YA9AOWdiBsXKNPEAxBj3Pkgmb28XrzbUScTLERtvdd013QuUUH8ul6NJeoHLvQr520VzN6E25zTsRZZdvVByVlU7tlwnx4kXfybPXKV8P15Q/F/kUYjFKXGiENn9sdlqc7Olpzb7oi/UUDwZVrKZaO148fnoSO9CAYcZi9S08oDEyUQQYngojiMlIEX8UGXng+j6CGO2jwN3b56MS7H2y2IvNHjFTpKN4/HHpjVI/rzyq3Q0N2N/Of861UcD08+z32Jfu8ibH9+rfcBiZtHPFjbgjfLcRnWgfuPbeUuL19uPWyGlzSp2L0fE4ikfREzErNstqcQTxZLT7/Fyq5TV1P35Kt+NV4qep2IEL9GjDuKHFYtJPkL+70jVOn2OsGySIMFylE0TWIKeNTeGGra8Jomyk0/fl6qPIxU99rzRq1EUnv46/N4mz+8TIWacjz+Muf2ixczFixyYrRvMlZw3FZmsJYvK+qb/n2EGt4zXpED/FYoerJ340bde0o0sbxg0nFsXfrRwXfqO1/KoxnY6xfpAgwnCVTRBlJ65cY9PHBDFtpK297QbKxe1K0lggqVY7rc13mutTfeQviZP7vObTGM37uEsslz4XlQ5Z0Tv2UiOxKV9P08f94lol9b1kj/LHU5P4qdSOV4sfXds1fWjUhnG9j0U+s+i0L1AtMeQ0O8Ya0nsfRIA7CNe8xlhi8HvZxSE5oykttxa50Yb8ubpnk0ETvgdk5J5u/1BgjZOp7Amy3UXyX93Ht9iIZisyxw6FRRdXsPfUG5u0elKqp7aI7/vIf3cUHbcB4b0Iga/LTJ87e5SpyF5V6XPxsPcfY82ozI4jusbmYa2T/U4n4TV5IXmUheVHuXVBusRPpXa8YvzoGzt60KkN4/obizG7nDliw39zuiS+QtKyk+Oy8eeVNv/X7RjrCAkiQCEhKW05PQ167wFezCUpyW25X6edTZUxp3e158kuE3mvQ8aD2DgisVyz36gPkSS+P9L6u8hfHZP3uSZ6j9gFtP0rGS+cs35JfrehHM+0A9Otgkzlz8W0sBFX9jVpG5uiQ2mRq1ZXEib05iq3ckoUq9Enfqq141XjR+d2rev0asO4PsZiTCE7DsfE0EoSQ5agnR+XMvQ7xnpCgghQhKwqmbCu7pk+BKGTJIdENr1njHSpdykLOdl8/kZ10I4yJnMxqpqfQXPfp/mdKjUbc/9vlWhZ7TLPcW5V6XMxpu9VUi2QK32TR8vYjJON8a+MNBjPM+U1bWnxWay7qE38VGrHa4gfzdu1LtOqDeN6FYvHxHC6SBJD2+WJ4SZJ5uRXVaXdMdYUEkSAIqKdmCYxeKFDU9EYs0ua+5a5oe/JXcrS8o88Ascu1s5YbMcx4lNd5bNFxd+rJObtlxIbNzeo7LkYf9OxT2VTPTuIaBKbcmN8+/3C9i3c+Wh/DSMKnYyfKu147fGDdq1pnW3DuF7EYnKtuZQYni47aU6nj7GmkCAC6IIlZaKzX9PDKd3zk6MQgkWzwgu4yo+8/uBWe34sGZguZe9hu6RpqQN+3JurN3sxqh2yGjsTmbGZ5/yVd122C/Py55VHmcMppmBZ7sneneeSvTxTS1pXyhARP3mgXWtSD2MwdfdYVBJDdq0RiWEQtZoYJnp8jO8ICSJAAep8/8FS71rmXBR/8r4VWUhvPFAdY49Q0qEAQl0jbfUpey6m61S4Sp0J3WLzsDF+xvqcmorVCB2NnyrteC3xg3atPR1uwzh9YzEWxdSSxJC1K2KNIUsMJ0aLiaHU8WOsKySIALqY+BercpV9+CUb0sNUDibvYvBod7jPeX16G9Rr8kaBLVeXWDYFJQ74YdF/jmnEelALQrS8hjjP+Sur8FludPnzyqPo4Qw/F+y8zbM+p3qxmhTiB+6tfzGYuncsGjT/ig7XmO1ySuZoTE4Yl7+hVFJ/j/F9IUEEKKCetXQ6O07l4BelfNNLlQtZxvQ2qJPBcpJNklBs/OIXzsOi/zLTiJtX6lxUC0KUKAmvr+QczNuBqlqsRuhw/JRuxwcbP5rqeBvGaR2LhrzGRGmiuKXl1EwSRS9sJ1HU4BjrCgkiAOR3mMrB5L0oHb7HIver4OjhSYW3ChUnobDDSHGPOsJlRr+v0ig2Y++DnYMFOlA1FKtB/NyAdq0VfYzBVKdiMU0U90miaLG/bLmQI4oNJ4p9Psb3hgQRoIiTktDDqz6nrnnId1E6FrS5uVdiLpjS1Z5j+fTKiVRTCp+LNW1vcVGXY1OO+p9vjJ/hvFjNh1ekm9fx+CnVjjcVP2jXmqFBG8b1KhaTRHHDE0XXZj+t6URRk2OsKSSIAEUMuriAuuYh30Up9l5FWX2yA9qUyQ5PSoA/Ua19erghImXZ6InQKb9lRq0Kn4vqa6qhmIEusSlG8C9tjJ9h8kanSxG/C3TwOh4/pdrxGuMH7VoLNGjDuF7GIksU5/7FRHHs1JkoanKMNYUEEaCQCak31gdVnlydXprjTmMcOmSy7JBXN9uXrIhzWv30kXCjvSXKsT4mBklJ84/HrhQCKHguqvF7KAnPK/GxjkSJ01iP2JQj+KWmXxn0PDvJEPMXq+l8/JRox2uMH7RrLdCiDeP6HIvHRDEKkkQxKWYzShLFgn/rH9ocYz0hQQQoSJ16tS08x/T6Ha+uU6eXsldOqxu9xdgbkzldEq/GuClbLpVRq59iCsmdbBfigj7ie139zOir2jzhWhU5F9WOUFoSPnReaffu06TES9IiNrM2xs9QS7GajsZP0Xa8zvhBu9ayDrdhXP9j0SBjwhPFfZIoskZFJIpmTYki1/FjrCMkiABFqfuEFSreEFOs3vlj+B5jZUYv2nc6vZTjm3mPz9YVxKFHznhE5uqJgmhfblrpQUzH62Ce8vzQLJuCokWGmlbgXFQ7QvQbkueMaf34VXK7Fz1iU9zUqVI5uIZiNUcdi5+C7Xh98YN27X462IZxA4pFkShueKLoEi98KhLF1wp7rf7R0WOsoz3AUP3T2vNTgKx/yCfyi1z5vWTt3Ug+eVWwZ42//PrrDyv7B91PYB//VsvdR1Gwd21rz9p35TWwj213H0Q1vY7IPf58O5BPQlsCdnzTY2ux97+r0Zn7XFTjybJznLc3NBWb8jyrpS1Q/8YaH3n/Nh3ip1A7Xlf8oF1rTeEYvHTOiGMU7V3r+Fxy2E6fO36tpF4zyWa9gNuGGossUdzbrN9Q9iXocp3SERJEGK4KCSJrlg5JX6cTu5oEtryItPh6iyXh0CmHGwinxy5ybdEh4Rdy8THrHPCv452c0+5Jcn6lX3db++ciYrNBiB24Jx5/aeLHb4bKp9mB+xOT7MnDtfFi/IgkkcVnruOMWGwfO36yXUmOd95jNQxIEGG4KiWISuOqXkR66XjhynMntB7Hu7NtXSyhJud34dMO/aEzkjx38jF7nPbnZczlPLfaPRcRm41B7EAnpNe8Y+LE4+TyMbsebzx5LHKcEYstithx469fSQqLHq++Q4IIw1UxQRxMA6tOlTntiTUn/Z2tXCihEayzn3Sy+AWYdfx5x15+SpVOEfp7DrELeO54a/FcRGw2D7ED96YeK/Zv68YxSxO705DjiWPRG6qIxXbIpF49PuL9sM6O4bAhQYThqpwgcmlD098pGur00nYaz/QiiSlYust1R1x2VP50iNjzxeKtjXMRsdkWxA7c2+Ha92ca85l05FsNOh6bpS6YiMWmpce1nf6MvpAgwnDVkiAy6cWhl3fi0osVfxS9G1pO0nijE9UL8ty4eTf8UueKx12Zq3fD5yJis0WIHbg7Fksikcq+9p0fX/5x6QQEsdgg2afpZX+tXtjmAqAqY06bKCCbFmSO6yzXfH+x93HYlsNym954Ntngdrq0yI02hOrv/XHcxDif2FvTY5m9GRo7FxGb94LYgXvh17+fJ77B+5KmGTGR7GUo9weOPfpY2iS3KCwOsdicdKuxpwdshZEBCSJAHYwJ+ZuIgqcVmaMxefW16HcU0/cq3W/Jotlzg81pHJIzTja4jfboRPVF+E00E/2mHV3d/tl4oCf+/5/fpCMUOvT54JePgbrPRcTmXSB24K5YLL3u3mnj+8leoNsFvd4KiMkbuRb/sk/yvle0tV+q3VBFLDYilhs/Wo+m+D9chwQR4P/+75ru0Bk08TcUBTPaffZgJDH8pEWaH9rvDV5QYvI+1/T4HtF+gw1ueyP06Pd5TnNxZ31Ja7n7cxzHZ+eGSY+sY5VgnZj1S8nN61V1nYuIzbtA7MA9xR6NPx7pSwbTxOejeTz5e72RqBn0POPBuKTFgsgtM4r9B2KxNeyYO5Wz8J6RU00BhieY7PkpQP/lv2MuOkANxNoWvrYjcvf2YYGLXPNhB6Ia4N91OWnBBPY5u511rtA9iB3ohiSmzte+Hoom8fWIVzsMWN/Ween6TmUNZrJZ/+VKyUOGEUSA//O/rk9hAoDcTD6cw6difT+TfxhynlAyEPRBn/R2YYTHoIdkniA9vvkNr3OFrkLsQBeEjilmzmwXJjnpyLU3JvMwnWZJU3N0+NypJF6t2TNG6brKmNNXwNeVbmnBjuNoNGZtC2tzWOOCY3ZqxLNE+W+AYQn/G42m/87+8V8p2P9PdC4A7iR0RrR+2dcwPRCGBrED3RGTN34l+sJ6U9AfRhBhwP6z/P+/H9a4AEDLQgcdfCgHsQNdEn/TimbUZD03gLYgQYThmvjEF75wS2SIAO3jhQF+L00dBMiA2IFOicl7XdDTO4rAQD8gQYRhk6Wp+RoXFLACaB7fh2vE9/biHfyT9WYAtyF2oFNCj8Yjvo6NP0xakEu1FC8F6AAkiDBwBs2/XLlg2aEQSSJAg/gJxitArOgzQgcfikDsQMcoW+lZdkARtpCAHkGRGgAudGg8XbLuh0V28EX+BM08AAAAAAwPRhABuIlPmygg1yZaTk0ajcfkeKG4Zw0AAAAAMBQYQQT4I6bQ+6b1akXLLZEboWQ1AAAAAAwDEkQAAAAAAAAQMMUUAAAAAAAABCSIAAAAAAAAICBBBAAAAAAAAAEJIgAAAAAAAAhIEAEAAAAAAEBAgggAAAAAAAACEkQAAAAAAAAQkCACAAAAAACAgAQRAAAAAAAABCSIAAAAAAAAICBBBAAAAAAAAIbo/wMjMlOUER/b1QAAAABJRU5ErkJggg==;" parent="1" vertex="1">
          <mxGeometry x="502" y="513" width="478" height="73.58" as="geometry" />
        </mxCell>
      </root>
    </mxGraphModel>
  </diagram>
</mxfile>
